<?xml version="1.0" encoding="UTF-8" standalone="no"?>
<!DOCTYPE svg PUBLIC "-//W3C//DTD SVG 1.1//EN"
 "http://www.w3.org/Graphics/SVG/1.1/DTD/svg11.dtd">
<!-- Generated by graphviz version 8.1.0 (20230707.0739)
 -->
<!-- Title: parser.y Pages: 1 -->
<svg width="1826pt" height="1502pt"
 viewBox="0.00 0.00 1825.74 1501.50" xmlns="http://www.w3.org/2000/svg" xmlns:xlink="http://www.w3.org/1999/xlink">
<g id="graph0" class="graph" transform="scale(1 1) rotate(0) translate(4 1497.5)">
<title>parser.y</title>
<polygon fill="white" stroke="none" points="-4,4 -4,-1497.5 1821.74,-1497.5 1821.74,4 -4,4"/>
<!-- 0 -->
<g id="node1" class="node">
<title>0</title>
<polygon fill="none" stroke="black" points="1336.74,-1493.5 1097.99,-1493.5 1097.99,-1436.5 1336.74,-1436.5 1336.74,-1493.5"/>
<text text-anchor="middle" x="1217.36" y="-1476.2" font-family="Courier,monospace" font-size="14.00">State 0</text>
<text text-anchor="start" x="1105.99" y="-1443.7" font-family="Courier,monospace" font-size="14.00"> &#160;0 $accept: • program $end</text>
</g>
<!-- 1 -->
<g id="node2" class="node">
<title>1</title>
<polygon fill="none" stroke="black" points="970.74,-1258 335.99,-1258 335.99,-1201 970.74,-1201 970.74,-1258"/>
<text text-anchor="middle" x="653.36" y="-1240.7" font-family="Courier,monospace" font-size="14.00">State 1</text>
<text text-anchor="start" x="343.99" y="-1208.2" font-family="Courier,monospace" font-size="14.00"> &#160;4 FUNDEF: FN • IDENTIFIER LPAREN PARAMS RPAREN ARROW LBRACE instrs RBRACE</text>
</g>
<!-- 0&#45;&gt;1 -->
<g id="edge1" class="edge">
<title>0&#45;&gt;1</title>
<path fill="none" stroke="black" d="M1115.77,-1436.02C1068.66,-1422.04 1012.28,-1403.88 962.86,-1384 873.47,-1348.04 774.39,-1296.76 712.98,-1263.55"/>
<polygon fill="black" stroke="black" points="714.91,-1260.08 704.46,-1258.38 711.57,-1266.23 714.91,-1260.08"/>
<text text-anchor="middle" x="971.61" y="-1342.2" font-family="Courier,monospace" font-size="14.00">FN</text>
</g>
<!-- 2 -->
<g id="node3" class="node">
<title>2</title>
<polygon fill="none" stroke="black" points="1568.74,-1375.75 1329.99,-1375.75 1329.99,-1318.75 1568.74,-1318.75 1568.74,-1375.75"/>
<text text-anchor="middle" x="1449.36" y="-1358.45" font-family="Courier,monospace" font-size="14.00">State 2</text>
<text text-anchor="start" x="1337.99" y="-1325.95" font-family="Courier,monospace" font-size="14.00"> &#160;0 $accept: program • $end</text>
</g>
<!-- 0&#45;&gt;2 -->
<g id="edge2" class="edge">
<title>0&#45;&gt;2</title>
<path fill="none" stroke="black" stroke-dasharray="5,2" d="M1273.23,-1436.13C1306.57,-1419.5 1349.06,-1398.29 1383.96,-1380.88"/>
<polygon fill="black" stroke="black" points="1385.2,-1383.68 1392.58,-1376.08 1382.07,-1377.41 1385.2,-1383.68"/>
<text text-anchor="middle" x="1369.24" y="-1405.2" font-family="Courier,monospace" font-size="14.00">program</text>
</g>
<!-- 3 -->
<g id="node4" class="node">
<title>3</title>
<polygon fill="none" stroke="black" points="1784.11,-1375.75 1586.61,-1375.75 1586.61,-1318.75 1784.11,-1318.75 1784.11,-1375.75"/>
<text text-anchor="middle" x="1685.36" y="-1358.45" font-family="Courier,monospace" font-size="14.00">State 3</text>
<text text-anchor="start" x="1594.61" y="-1325.95" font-family="Courier,monospace" font-size="14.00"> &#160;1 program: FUNDEFS •</text>
</g>
<!-- 0&#45;&gt;3 -->
<g id="edge3" class="edge">
<title>0&#45;&gt;3</title>
<path fill="none" stroke="black" stroke-dasharray="5,2" d="M1336.88,-1440.6C1407.31,-1426.03 1497.9,-1405.92 1577.36,-1384 1582.64,-1382.54 1588.05,-1380.98 1593.48,-1379.36"/>
<polygon fill="black" stroke="black" points="1594.41,-1382.43 1602.96,-1376.17 1592.37,-1375.73 1594.41,-1382.43"/>
<text text-anchor="middle" x="1528.24" y="-1405.2" font-family="Courier,monospace" font-size="14.00">FUNDEFS</text>
</g>
<!-- 4 -->
<g id="node5" class="node">
<title>4</title>
<polygon fill="none" stroke="black" points="1243.99,-1384 988.74,-1384 988.74,-1310.5 1243.99,-1310.5 1243.99,-1384"/>
<text text-anchor="middle" x="1116.36" y="-1366.7" font-family="Courier,monospace" font-size="14.00">State 4</text>
<text text-anchor="start" x="996.74" y="-1334.2" font-family="Courier,monospace" font-size="14.00"> &#160;2 FUNDEFS: FUNDEF • FUNDEFS</text>
<text text-anchor="start" x="996.74" y="-1317.7" font-family="Courier,monospace" font-size="14.00"> &#160;3 &#160;&#160;&#160;&#160;&#160;&#160;&#160;| FUNDEF •</text>
</g>
<!-- 0&#45;&gt;4 -->
<g id="edge4" class="edge">
<title>0&#45;&gt;4</title>
<path fill="none" stroke="black" stroke-dasharray="5,2" d="M1193.17,-1436.27C1181.65,-1423.07 1167.59,-1406.96 1154.67,-1392.15"/>
<polygon fill="black" stroke="black" points="1156.84,-1390.31 1147.63,-1385.08 1151.57,-1394.92 1156.84,-1390.31"/>
<text text-anchor="middle" x="1201.11" y="-1405.2" font-family="Courier,monospace" font-size="14.00">FUNDEF</text>
</g>
<!-- 5 -->
<g id="node6" class="node">
<title>5</title>
<polygon fill="none" stroke="black" points="970.74,-1148.5 335.99,-1148.5 335.99,-1091.5 970.74,-1091.5 970.74,-1148.5"/>
<text text-anchor="middle" x="653.36" y="-1131.2" font-family="Courier,monospace" font-size="14.00">State 5</text>
<text text-anchor="start" x="343.99" y="-1098.7" font-family="Courier,monospace" font-size="14.00"> &#160;4 FUNDEF: FN IDENTIFIER • LPAREN PARAMS RPAREN ARROW LBRACE instrs RBRACE</text>
</g>
<!-- 1&#45;&gt;5 -->
<g id="edge5" class="edge">
<title>1&#45;&gt;5</title>
<path fill="none" stroke="black" d="M653.36,-1200.54C653.36,-1188.09 653.36,-1173.24 653.36,-1159.75"/>
<polygon fill="black" stroke="black" points="656.87,-1159.82 653.36,-1149.82 649.87,-1159.82 656.87,-1159.82"/>
<text text-anchor="middle" x="694.61" y="-1169.7" font-family="Courier,monospace" font-size="14.00">IDENTIFIER</text>
</g>
<!-- 6 -->
<g id="node7" class="node">
<title>6</title>
<polygon fill="none" stroke="black" points="1581.74,-1258 1342.99,-1258 1342.99,-1201 1581.74,-1201 1581.74,-1258"/>
<text text-anchor="middle" x="1462.36" y="-1240.7" font-family="Courier,monospace" font-size="14.00">State 6</text>
<text text-anchor="start" x="1350.99" y="-1208.2" font-family="Courier,monospace" font-size="14.00"> &#160;0 $accept: program $end •</text>
</g>
<!-- 2&#45;&gt;6 -->
<g id="edge6" class="edge">
<title>2&#45;&gt;6</title>
<path fill="none" stroke="black" d="M1452.48,-1318.52C1454.14,-1303.74 1456.21,-1285.32 1458.02,-1269.16"/>
<polygon fill="black" stroke="black" points="1461.59,-1269.73 1459.23,-1259.4 1454.64,-1268.95 1461.59,-1269.73"/>
<text text-anchor="middle" x="1473.86" y="-1279.2" font-family="Courier,monospace" font-size="14.00">$end</text>
</g>
<!-- 3R1 -->
<g id="node8" class="node">
<title>3R1</title>
<polygon fill="#b2df8a" stroke="black" points="1685.36,-1247.5 1654,-1229.5 1685.36,-1211.5 1716.73,-1229.5 1685.36,-1247.5"/>
<text text-anchor="middle" x="1685.36" y="-1224.45" font-family="Courier,monospace" font-size="14.00">R1</text>
</g>
<!-- 3&#45;&gt;3R1 -->
<g id="edge7" class="edge">
<title>3&#45;&gt;3R1</title>
<path fill="none" stroke="black" d="M1685.36,-1318.52C1685.36,-1300.44 1685.36,-1276.92 1685.36,-1258.73"/>
<polygon fill="black" stroke="black" points="1688.87,-1258.93 1685.36,-1248.93 1681.87,-1258.93 1688.87,-1258.93"/>
</g>
<!-- 4&#45;&gt;1 -->
<g id="edge8" class="edge">
<title>4&#45;&gt;1</title>
<path fill="none" stroke="black" d="M988.32,-1314.24C921.88,-1297.63 841.14,-1277.44 775.57,-1261.05"/>
<polygon fill="black" stroke="black" points="776.73,-1257.48 766.18,-1258.45 775.04,-1264.28 776.73,-1257.48"/>
<text text-anchor="middle" x="907.61" y="-1279.2" font-family="Courier,monospace" font-size="14.00">FN</text>
</g>
<!-- 4&#45;&gt;4 -->
<g id="edge10" class="edge">
<title>4&#45;&gt;4</title>
<path fill="none" stroke="black" stroke-dasharray="5,2" d="M1244.17,-1356.47C1255.14,-1354.51 1261.99,-1351.43 1261.99,-1347.25 1261.99,-1344.64 1259.31,-1342.45 1254.63,-1340.71"/>
<polygon fill="black" stroke="black" points="1255.72,-1337.12 1245.17,-1338.03 1253.99,-1343.9 1255.72,-1337.12"/>
<text text-anchor="middle" x="1286.74" y="-1342.2" font-family="Courier,monospace" font-size="14.00">FUNDEF</text>
</g>
<!-- 7 -->
<g id="node9" class="node">
<title>7</title>
<polygon fill="none" stroke="black" points="1243.99,-1258 988.74,-1258 988.74,-1201 1243.99,-1201 1243.99,-1258"/>
<text text-anchor="middle" x="1116.36" y="-1240.7" font-family="Courier,monospace" font-size="14.00">State 7</text>
<text text-anchor="start" x="996.74" y="-1208.2" font-family="Courier,monospace" font-size="14.00"> &#160;2 FUNDEFS: FUNDEF FUNDEFS •</text>
</g>
<!-- 4&#45;&gt;7 -->
<g id="edge9" class="edge">
<title>4&#45;&gt;7</title>
<path fill="none" stroke="black" stroke-dasharray="5,2" d="M1116.36,-1310.26C1116.36,-1297.19 1116.36,-1282.38 1116.36,-1269.1"/>
<polygon fill="black" stroke="black" points="1119.87,-1269.38 1116.36,-1259.38 1112.87,-1269.38 1119.87,-1269.38"/>
<text text-anchor="middle" x="1145.24" y="-1279.2" font-family="Courier,monospace" font-size="14.00">FUNDEFS</text>
</g>
<!-- 4R3 -->
<g id="node10" class="node">
<title>4R3</title>
<polygon fill="#b2df8a" stroke="black" points="1293.36,-1247.5 1262,-1229.5 1293.36,-1211.5 1324.73,-1229.5 1293.36,-1247.5"/>
<text text-anchor="middle" x="1293.36" y="-1224.45" font-family="Courier,monospace" font-size="14.00">R3</text>
</g>
<!-- 4&#45;&gt;4R3 -->
<g id="edge11" class="edge">
<title>4&#45;&gt;4R3</title>
<path fill="none" stroke="black" d="M1173.27,-1310.13C1197.99,-1294.3 1227.22,-1275.4 1253.36,-1258 1259.03,-1254.23 1265.1,-1250.1 1270.75,-1246.22"/>
<polygon fill="black" stroke="black" points="1272.49,-1248.58 1278.73,-1240.02 1268.52,-1242.82 1272.49,-1248.58"/>
</g>
<!-- 8 -->
<g id="node11" class="node">
<title>8</title>
<polygon fill="none" stroke="black" points="970.74,-1039 335.99,-1039 335.99,-982 970.74,-982 970.74,-1039"/>
<text text-anchor="middle" x="653.36" y="-1021.7" font-family="Courier,monospace" font-size="14.00">State 8</text>
<text text-anchor="start" x="343.99" y="-989.2" font-family="Courier,monospace" font-size="14.00"> &#160;4 FUNDEF: FN IDENTIFIER LPAREN • PARAMS RPAREN ARROW LBRACE instrs RBRACE</text>
</g>
<!-- 5&#45;&gt;8 -->
<g id="edge12" class="edge">
<title>5&#45;&gt;8</title>
<path fill="none" stroke="black" d="M653.36,-1091.04C653.36,-1078.59 653.36,-1063.74 653.36,-1050.25"/>
<polygon fill="black" stroke="black" points="656.87,-1050.32 653.36,-1040.32 649.87,-1050.32 656.87,-1050.32"/>
<text text-anchor="middle" x="678.11" y="-1060.2" font-family="Courier,monospace" font-size="14.00">LPAREN</text>
</g>
<!-- 6R0 -->
<g id="node12" class="node">
<title>6R0</title>
<polygon fill="#a6cee3" stroke="black" points="1462.36,-1138 1423.04,-1120 1462.36,-1102 1501.69,-1120 1462.36,-1138"/>
<text text-anchor="middle" x="1462.36" y="-1114.95" font-family="Courier,monospace" font-size="14.00">Acc</text>
</g>
<!-- 6&#45;&gt;6R0 -->
<g id="edge13" class="edge">
<title>6&#45;&gt;6R0</title>
<path fill="none" stroke="black" d="M1462.36,-1200.54C1462.36,-1184.72 1462.36,-1164.99 1462.36,-1149.14"/>
<polygon fill="black" stroke="black" points="1465.87,-1149.4 1462.36,-1139.4 1458.87,-1149.4 1465.87,-1149.4"/>
</g>
<!-- 7R2 -->
<g id="node13" class="node">
<title>7R2</title>
<polygon fill="#b2df8a" stroke="black" points="1116.36,-1138 1085,-1120 1116.36,-1102 1147.73,-1120 1116.36,-1138"/>
<text text-anchor="middle" x="1116.36" y="-1114.95" font-family="Courier,monospace" font-size="14.00">R2</text>
</g>
<!-- 7&#45;&gt;7R2 -->
<g id="edge14" class="edge">
<title>7&#45;&gt;7R2</title>
<path fill="none" stroke="black" d="M1116.36,-1200.54C1116.36,-1184.72 1116.36,-1164.99 1116.36,-1149.14"/>
<polygon fill="black" stroke="black" points="1119.87,-1149.4 1116.36,-1139.4 1112.87,-1149.4 1119.87,-1149.4"/>
</g>
<!-- 9 -->
<g id="node14" class="node">
<title>9</title>
<polygon fill="none" stroke="black" points="584.24,-694 378.49,-694 378.49,-637 584.24,-637 584.24,-694"/>
<text text-anchor="middle" x="481.36" y="-676.7" font-family="Courier,monospace" font-size="14.00">State 9</text>
<text text-anchor="start" x="386.49" y="-644.2" font-family="Courier,monospace" font-size="14.00"> &#160;8 PARAM: IDENTIFIER •</text>
</g>
<!-- 8&#45;&gt;9 -->
<g id="edge15" class="edge">
<title>8&#45;&gt;9</title>
<path fill="none" stroke="black" d="M564.47,-981.66C539.77,-969.56 515.57,-952.68 500.36,-929.5 455.38,-860.92 464.05,-759.52 473.31,-704.83"/>
<polygon fill="black" stroke="black" points="476.9,-705.67 475.22,-695.21 470.01,-704.44 476.9,-705.67"/>
<text text-anchor="middle" x="510.61" y="-824.7" font-family="Courier,monospace" font-size="14.00">IDENTIFIER</text>
</g>
<!-- 10 -->
<g id="node15" class="node">
<title>10</title>
<polygon fill="none" stroke="black" points="1143.74,-921.25 508.99,-921.25 508.99,-864.25 1143.74,-864.25 1143.74,-921.25"/>
<text text-anchor="middle" x="826.36" y="-903.95" font-family="Courier,monospace" font-size="14.00">State 10</text>
<text text-anchor="start" x="516.99" y="-871.45" font-family="Courier,monospace" font-size="14.00"> &#160;4 FUNDEF: FN IDENTIFIER LPAREN PARAMS • RPAREN ARROW LBRACE instrs RBRACE</text>
</g>
<!-- 8&#45;&gt;10 -->
<g id="edge16" class="edge">
<title>8&#45;&gt;10</title>
<path fill="none" stroke="black" stroke-dasharray="5,2" d="M694.8,-981.77C719.12,-965.5 750.04,-944.82 775.79,-927.59"/>
<polygon fill="black" stroke="black" points="777.3,-930.12 783.67,-921.65 773.41,-924.3 777.3,-930.12"/>
<text text-anchor="middle" x="770.11" y="-950.7" font-family="Courier,monospace" font-size="14.00">PARAMS</text>
</g>
<!-- 11 -->
<g id="node16" class="node">
<title>11</title>
<polygon fill="none" stroke="black" points="448.36,-929.5 168.36,-929.5 168.36,-856 448.36,-856 448.36,-929.5"/>
<text text-anchor="middle" x="308.36" y="-912.2" font-family="Courier,monospace" font-size="14.00">State 11</text>
<text text-anchor="start" x="176.36" y="-879.7" font-family="Courier,monospace" font-size="14.00"> &#160;5 PARAMS: PARAM •</text>
<text text-anchor="start" x="176.36" y="-863.2" font-family="Courier,monospace" font-size="14.00"> &#160;6 &#160;&#160;&#160;&#160;&#160;&#160;| PARAM • COMMA PARAMS</text>
</g>
<!-- 8&#45;&gt;11 -->
<g id="edge17" class="edge">
<title>8&#45;&gt;11</title>
<path fill="none" stroke="black" stroke-dasharray="5,2" d="M481.26,-981.55C462.39,-976.57 443.67,-970.76 426.11,-964 406.82,-956.57 387.06,-946.09 369.38,-935.49"/>
<polygon fill="black" stroke="black" points="371.69,-932.19 361.33,-929.95 368.04,-938.16 371.69,-932.19"/>
<text text-anchor="middle" x="446.99" y="-950.7" font-family="Courier,monospace" font-size="14.00">PARAM</text>
</g>
<!-- 8R7 -->
<g id="node17" class="node">
<title>8R7</title>
<polygon fill="#b2df8a" stroke="black" points="1193.36,-910.75 1162,-892.75 1193.36,-874.75 1224.73,-892.75 1193.36,-910.75"/>
<text text-anchor="middle" x="1193.36" y="-887.7" font-family="Courier,monospace" font-size="14.00">R7</text>
</g>
<!-- 8&#45;&gt;8R7 -->
<g id="edge18" class="edge">
<title>8&#45;&gt;8R7</title>
<path fill="none" stroke="black" d="M971.11,-985.75C1033.12,-973.65 1096.25,-955.78 1152.36,-929.5 1160.9,-925.5 1169.02,-919.18 1175.74,-912.96"/>
<polygon fill="black" stroke="black" points="1177.81,-915.85 1182.44,-906.32 1172.88,-910.88 1177.81,-915.85"/>
</g>
<!-- 9R8 -->
<g id="node18" class="node">
<title>9R8</title>
<polygon fill="#b2df8a" stroke="black" points="481.36,-574 450,-556 481.36,-538 512.73,-556 481.36,-574"/>
<text text-anchor="middle" x="481.36" y="-550.95" font-family="Courier,monospace" font-size="14.00">R8</text>
</g>
<!-- 9&#45;&gt;9R8 -->
<g id="edge19" class="edge">
<title>9&#45;&gt;9R8</title>
<path fill="none" stroke="black" d="M481.36,-636.54C481.36,-620.72 481.36,-600.99 481.36,-585.14"/>
<polygon fill="black" stroke="black" points="484.87,-585.4 481.36,-575.4 477.87,-585.4 484.87,-585.4"/>
</g>
<!-- 12 -->
<g id="node19" class="node">
<title>12</title>
<polygon fill="none" stroke="black" points="1189.74,-803.5 554.99,-803.5 554.99,-746.5 1189.74,-746.5 1189.74,-803.5"/>
<text text-anchor="middle" x="872.36" y="-786.2" font-family="Courier,monospace" font-size="14.00">State 12</text>
<text text-anchor="start" x="562.99" y="-753.7" font-family="Courier,monospace" font-size="14.00"> &#160;4 FUNDEF: FN IDENTIFIER LPAREN PARAMS RPAREN • ARROW LBRACE instrs RBRACE</text>
</g>
<!-- 10&#45;&gt;12 -->
<g id="edge20" class="edge">
<title>10&#45;&gt;12</title>
<path fill="none" stroke="black" d="M837.38,-864.02C843.37,-848.96 850.86,-830.11 857.37,-813.73"/>
<polygon fill="black" stroke="black" points="860.84,-815.49 861.28,-804.9 854.33,-812.9 860.84,-815.49"/>
<text text-anchor="middle" x="879.11" y="-824.7" font-family="Courier,monospace" font-size="14.00">RPAREN</text>
</g>
<!-- 13 -->
<g id="node20" class="node">
<title>13</title>
<polygon fill="none" stroke="black" points="443.36,-803.5 163.36,-803.5 163.36,-746.5 443.36,-746.5 443.36,-803.5"/>
<text text-anchor="middle" x="303.36" y="-786.2" font-family="Courier,monospace" font-size="14.00">State 13</text>
<text text-anchor="start" x="171.36" y="-753.7" font-family="Courier,monospace" font-size="14.00"> &#160;6 PARAMS: PARAM COMMA • PARAMS</text>
</g>
<!-- 11&#45;&gt;13 -->
<g id="edge21" class="edge">
<title>11&#45;&gt;13</title>
<path fill="none" stroke="black" d="M282.43,-855.71C279.42,-850.02 276.83,-844.02 275.11,-838 272.82,-829.93 273.97,-821.57 276.82,-813.71"/>
<polygon fill="black" stroke="black" points="280.42,-815.26 281.41,-804.72 274.06,-812.34 280.42,-815.26"/>
<text text-anchor="middle" x="295.99" y="-824.7" font-family="Courier,monospace" font-size="14.00">COMMA</text>
</g>
<!-- 11R5 -->
<g id="node21" class="node">
<title>11R5</title>
<polygon fill="#b2df8a" stroke="black" points="114.36,-793 83,-775 114.36,-757 145.73,-775 114.36,-793"/>
<text text-anchor="middle" x="114.36" y="-769.95" font-family="Courier,monospace" font-size="14.00">R5</text>
</g>
<!-- 11&#45;&gt;11R5 -->
<g id="edge22" class="edge">
<title>11&#45;&gt;11R5</title>
<path fill="none" stroke="black" d="M242.47,-855.56C214.94,-840.03 182.8,-821.38 154.36,-803.5 148.61,-799.88 142.5,-795.81 136.84,-791.93"/>
<polygon fill="black" stroke="black" points="139.09,-788.53 128.88,-785.7 135.09,-794.28 139.09,-788.53"/>
</g>
<!-- 14 -->
<g id="node22" class="node">
<title>14</title>
<polygon fill="none" stroke="black" points="1236.74,-694 601.99,-694 601.99,-637 1236.74,-637 1236.74,-694"/>
<text text-anchor="middle" x="919.36" y="-676.7" font-family="Courier,monospace" font-size="14.00">State 14</text>
<text text-anchor="start" x="609.99" y="-644.2" font-family="Courier,monospace" font-size="14.00"> &#160;4 FUNDEF: FN IDENTIFIER LPAREN PARAMS RPAREN ARROW • LBRACE instrs RBRACE</text>
</g>
<!-- 12&#45;&gt;14 -->
<g id="edge23" class="edge">
<title>12&#45;&gt;14</title>
<path fill="none" stroke="black" d="M884.59,-746.04C890.19,-733.22 896.92,-717.84 902.95,-704.04"/>
<polygon fill="black" stroke="black" points="906.4,-705.89 907.2,-695.32 899.99,-703.08 906.4,-705.89"/>
<text text-anchor="middle" x="919.99" y="-715.2" font-family="Courier,monospace" font-size="14.00">ARROW</text>
</g>
<!-- 13&#45;&gt;9 -->
<g id="edge24" class="edge">
<title>13&#45;&gt;9</title>
<path fill="none" stroke="black" d="M336.73,-746.09C351.06,-734.79 368.3,-722.05 384.86,-712 392.13,-707.59 399.88,-703.31 407.72,-699.24"/>
<polygon fill="black" stroke="black" points="408.96,-702.03 416.3,-694.39 405.8,-695.78 408.96,-702.03"/>
<text text-anchor="middle" x="426.61" y="-715.2" font-family="Courier,monospace" font-size="14.00">IDENTIFIER</text>
</g>
<!-- 13&#45;&gt;11 -->
<g id="edge26" class="edge">
<title>13&#45;&gt;11</title>
<path fill="none" stroke="black" stroke-dasharray="5,2" d="M312.59,-803.65C314.16,-809.48 315.54,-815.64 316.36,-821.5 317.42,-829.02 317.5,-837.01 317.01,-844.79"/>
<polygon fill="black" stroke="black" points="313.44,-844.32 315.98,-854.61 320.41,-844.98 313.44,-844.32"/>
<text text-anchor="middle" x="337.99" y="-824.7" font-family="Courier,monospace" font-size="14.00">PARAM</text>
</g>
<!-- 15 -->
<g id="node23" class="node">
<title>15</title>
<polygon fill="none" stroke="black" points="360.36,-694 80.36,-694 80.36,-637 360.36,-637 360.36,-694"/>
<text text-anchor="middle" x="220.36" y="-676.7" font-family="Courier,monospace" font-size="14.00">State 15</text>
<text text-anchor="start" x="88.36" y="-644.2" font-family="Courier,monospace" font-size="14.00"> &#160;6 PARAMS: PARAM COMMA PARAMS •</text>
</g>
<!-- 13&#45;&gt;15 -->
<g id="edge25" class="edge">
<title>13&#45;&gt;15</title>
<path fill="none" stroke="black" stroke-dasharray="5,2" d="M281.77,-746.04C271.59,-732.85 259.31,-716.94 248.42,-702.84"/>
<polygon fill="black" stroke="black" points="250.73,-701.1 241.85,-695.32 245.19,-705.38 250.73,-701.1"/>
<text text-anchor="middle" x="292.11" y="-715.2" font-family="Courier,monospace" font-size="14.00">PARAMS</text>
</g>
<!-- 13R7 -->
<g id="node24" class="node">
<title>13R7</title>
<polygon fill="#b2df8a" stroke="black" points="31.36,-683.5 0,-665.5 31.36,-647.5 62.73,-665.5 31.36,-683.5"/>
<text text-anchor="middle" x="31.36" y="-660.45" font-family="Courier,monospace" font-size="14.00">R7</text>
</g>
<!-- 13&#45;&gt;13R7 -->
<g id="edge27" class="edge">
<title>13&#45;&gt;13R7</title>
<path fill="none" stroke="black" d="M203.31,-746.03C161.48,-732.68 113.02,-715.01 71.36,-694 65.04,-690.81 58.57,-686.76 52.71,-682.74"/>
<polygon fill="black" stroke="black" points="55.31,-679.58 45.14,-676.61 51.23,-685.27 55.31,-679.58"/>
</g>
<!-- 16 -->
<g id="node25" class="node">
<title>16</title>
<polygon fill="none" stroke="black" points="1236.74,-584.5 601.99,-584.5 601.99,-527.5 1236.74,-527.5 1236.74,-584.5"/>
<text text-anchor="middle" x="919.36" y="-567.2" font-family="Courier,monospace" font-size="14.00">State 16</text>
<text text-anchor="start" x="609.99" y="-534.7" font-family="Courier,monospace" font-size="14.00"> &#160;4 FUNDEF: FN IDENTIFIER LPAREN PARAMS RPAREN ARROW LBRACE • instrs RBRACE</text>
</g>
<!-- 14&#45;&gt;16 -->
<g id="edge28" class="edge">
<title>14&#45;&gt;16</title>
<path fill="none" stroke="black" d="M919.36,-636.54C919.36,-624.09 919.36,-609.24 919.36,-595.75"/>
<polygon fill="black" stroke="black" points="922.87,-595.82 919.36,-585.82 915.87,-595.82 922.87,-595.82"/>
<text text-anchor="middle" x="944.11" y="-605.7" font-family="Courier,monospace" font-size="14.00">LBRACE</text>
</g>
<!-- 15R6 -->
<g id="node26" class="node">
<title>15R6</title>
<polygon fill="#b2df8a" stroke="black" points="220.36,-574 189,-556 220.36,-538 251.73,-556 220.36,-574"/>
<text text-anchor="middle" x="220.36" y="-550.95" font-family="Courier,monospace" font-size="14.00">R6</text>
</g>
<!-- 15&#45;&gt;15R6 -->
<g id="edge29" class="edge">
<title>15&#45;&gt;15R6</title>
<path fill="none" stroke="black" d="M220.36,-636.54C220.36,-620.72 220.36,-600.99 220.36,-585.14"/>
<polygon fill="black" stroke="black" points="223.87,-585.4 220.36,-575.4 216.87,-585.4 223.87,-585.4"/>
</g>
<!-- 17 -->
<g id="node27" class="node">
<title>17</title>
<polygon fill="none" stroke="black" points="1047.24,-349 775.49,-349 775.49,-292 1047.24,-292 1047.24,-349"/>
<text text-anchor="middle" x="911.36" y="-331.7" font-family="Courier,monospace" font-size="14.00">State 17</text>
<text text-anchor="start" x="783.49" y="-299.2" font-family="Courier,monospace" font-size="14.00"> 11 instr: RET • expr SEMICOLON</text>
</g>
<!-- 16&#45;&gt;17 -->
<g id="edge30" class="edge">
<title>16&#45;&gt;17</title>
<path fill="none" stroke="black" d="M918.42,-527.3C916.99,-485.78 914.3,-407.28 912.69,-360.15"/>
<polygon fill="black" stroke="black" points="916.15,-360.04 912.31,-350.17 909.16,-360.28 916.15,-360.04"/>
<text text-anchor="middle" x="929.74" y="-433.2" font-family="Courier,monospace" font-size="14.00">RET</text>
</g>
<!-- 18 -->
<g id="node28" class="node">
<title>18</title>
<polygon fill="none" stroke="black" points="993.61,-239.5 829.11,-239.5 829.11,-182.5 993.61,-182.5 993.61,-239.5"/>
<text text-anchor="middle" x="911.36" y="-222.2" font-family="Courier,monospace" font-size="14.00">State 18</text>
<text text-anchor="start" x="837.11" y="-189.7" font-family="Courier,monospace" font-size="14.00"> 13 expr: NUMBER •</text>
</g>
<!-- 16&#45;&gt;18 -->
<g id="edge31" class="edge">
<title>16&#45;&gt;18</title>
<path fill="none" stroke="black" d="M973.07,-527.13C1056.15,-480.29 1199.94,-382.08 1136.36,-292 1106.53,-249.72 1052.3,-229.66 1004.56,-220.19"/>
<polygon fill="black" stroke="black" points="1005.32,-216.59 994.85,-218.22 1004.06,-223.47 1005.32,-216.59"/>
<text text-anchor="middle" x="1171.11" y="-370.2" font-family="Courier,monospace" font-size="14.00">NUMBER</text>
</g>
<!-- 19 -->
<g id="node29" class="node">
<title>19</title>
<polygon fill="none" stroke="black" points="1817.74,-466.75 1182.99,-466.75 1182.99,-409.75 1817.74,-409.75 1817.74,-466.75"/>
<text text-anchor="middle" x="1500.36" y="-449.45" font-family="Courier,monospace" font-size="14.00">State 19</text>
<text text-anchor="start" x="1190.99" y="-416.95" font-family="Courier,monospace" font-size="14.00"> &#160;4 FUNDEF: FN IDENTIFIER LPAREN PARAMS RPAREN ARROW LBRACE instrs • RBRACE</text>
</g>
<!-- 16&#45;&gt;19 -->
<g id="edge32" class="edge">
<title>16&#45;&gt;19</title>
<path fill="none" stroke="black" stroke-dasharray="5,2" d="M1076.86,-527.06C1107.57,-521.4 1139.5,-515.39 1169.36,-509.5 1232.84,-496.99 1302.97,-482.24 1362.27,-469.5"/>
<polygon fill="black" stroke="black" points="1362.79,-472.75 1371.83,-467.22 1361.32,-465.91 1362.79,-472.75"/>
<text text-anchor="middle" x="1267.11" y="-496.2" font-family="Courier,monospace" font-size="14.00">instrs</text>
</g>
<!-- 20 -->
<g id="node30" class="node">
<title>20</title>
<polygon fill="none" stroke="black" points="823.61,-475 593.11,-475 593.11,-401.5 823.61,-401.5 823.61,-475"/>
<text text-anchor="middle" x="708.36" y="-457.7" font-family="Courier,monospace" font-size="14.00">State 20</text>
<text text-anchor="start" x="601.11" y="-425.2" font-family="Courier,monospace" font-size="14.00"> &#160;9 instrs: instr •</text>
<text text-anchor="start" x="601.11" y="-408.7" font-family="Courier,monospace" font-size="14.00"> 10 &#160;&#160;&#160;&#160;&#160;&#160;| instr • instrs</text>
</g>
<!-- 16&#45;&gt;20 -->
<g id="edge33" class="edge">
<title>16&#45;&gt;20</title>
<path fill="none" stroke="black" stroke-dasharray="5,2" d="M868.56,-527.13C843.14,-513.18 811.87,-496.03 783.72,-480.59"/>
<polygon fill="black" stroke="black" points="785.76,-477.17 775.31,-475.43 782.39,-483.3 785.76,-477.17"/>
<text text-anchor="middle" x="853.99" y="-496.2" font-family="Courier,monospace" font-size="14.00">instr</text>
</g>
<!-- 21 -->
<g id="node31" class="node">
<title>21</title>
<polygon fill="none" stroke="black" points="424.49,-349 268.24,-349 268.24,-292 424.49,-292 424.49,-349"/>
<text text-anchor="middle" x="346.36" y="-331.7" font-family="Courier,monospace" font-size="14.00">State 21</text>
<text text-anchor="start" x="276.24" y="-299.2" font-family="Courier,monospace" font-size="14.00"> 12 instr: expr •</text>
</g>
<!-- 16&#45;&gt;21 -->
<g id="edge34" class="edge">
<title>16&#45;&gt;21</title>
<path fill="none" stroke="black" stroke-dasharray="5,2" d="M716.2,-527.02C661.16,-515.15 602.66,-498.43 551.36,-475 486.04,-445.17 421.55,-391.88 382.83,-356.61"/>
<polygon fill="black" stroke="black" points="385.7,-354.57 375.97,-350.37 380.96,-359.72 385.7,-354.57"/>
<text text-anchor="middle" x="567.86" y="-433.2" font-family="Courier,monospace" font-size="14.00">expr</text>
</g>
<!-- 17&#45;&gt;18 -->
<g id="edge35" class="edge">
<title>17&#45;&gt;18</title>
<path fill="none" stroke="black" d="M911.36,-291.54C911.36,-279.09 911.36,-264.24 911.36,-250.75"/>
<polygon fill="black" stroke="black" points="914.87,-250.82 911.36,-240.82 907.87,-250.82 914.87,-250.82"/>
<text text-anchor="middle" x="936.11" y="-260.7" font-family="Courier,monospace" font-size="14.00">NUMBER</text>
</g>
<!-- 22 -->
<g id="node32" class="node">
<title>22</title>
<polygon fill="none" stroke="black" points="804.24,-239.5 532.49,-239.5 532.49,-182.5 804.24,-182.5 804.24,-239.5"/>
<text text-anchor="middle" x="668.36" y="-222.2" font-family="Courier,monospace" font-size="14.00">State 22</text>
<text text-anchor="start" x="540.49" y="-189.7" font-family="Courier,monospace" font-size="14.00"> 11 instr: RET expr • SEMICOLON</text>
</g>
<!-- 17&#45;&gt;22 -->
<g id="edge36" class="edge">
<title>17&#45;&gt;22</title>
<path fill="none" stroke="black" stroke-dasharray="5,2" d="M848.15,-291.54C815.39,-277.04 775.21,-259.27 741.15,-244.2"/>
<polygon fill="black" stroke="black" points="742.82,-240.67 732.26,-239.82 739.99,-247.07 742.82,-240.67"/>
<text text-anchor="middle" x="821.86" y="-260.7" font-family="Courier,monospace" font-size="14.00">expr</text>
</g>
<!-- 18R13 -->
<g id="node33" class="node">
<title>18R13</title>
<polygon fill="#b2df8a" stroke="black" points="911.36,-119.5 872.04,-101.5 911.36,-83.5 950.69,-101.5 911.36,-119.5"/>
<text text-anchor="middle" x="911.36" y="-96.45" font-family="Courier,monospace" font-size="14.00">R13</text>
</g>
<!-- 18&#45;&gt;18R13 -->
<g id="edge37" class="edge">
<title>18&#45;&gt;18R13</title>
<path fill="none" stroke="black" d="M911.36,-182.04C911.36,-166.22 911.36,-146.49 911.36,-130.64"/>
<polygon fill="black" stroke="black" points="914.87,-130.9 911.36,-120.9 907.87,-130.9 914.87,-130.9"/>
</g>
<!-- 23 -->
<g id="node34" class="node">
<title>23</title>
<polygon fill="none" stroke="black" points="1817.74,-349 1182.99,-349 1182.99,-292 1817.74,-292 1817.74,-349"/>
<text text-anchor="middle" x="1500.36" y="-331.7" font-family="Courier,monospace" font-size="14.00">State 23</text>
<text text-anchor="start" x="1190.99" y="-299.2" font-family="Courier,monospace" font-size="14.00"> &#160;4 FUNDEF: FN IDENTIFIER LPAREN PARAMS RPAREN ARROW LBRACE instrs RBRACE •</text>
</g>
<!-- 19&#45;&gt;23 -->
<g id="edge38" class="edge">
<title>19&#45;&gt;23</title>
<path fill="none" stroke="black" d="M1500.36,-409.52C1500.36,-394.74 1500.36,-376.32 1500.36,-360.16"/>
<polygon fill="black" stroke="black" points="1503.87,-360.4 1500.36,-350.4 1496.87,-360.4 1503.87,-360.4"/>
<text text-anchor="middle" x="1525.11" y="-370.2" font-family="Courier,monospace" font-size="14.00">RBRACE</text>
</g>
<!-- 20&#45;&gt;17 -->
<g id="edge39" class="edge">
<title>20&#45;&gt;17</title>
<path fill="none" stroke="black" d="M771.76,-401.1C797.65,-386.34 827.41,-369.37 852.79,-354.9"/>
<polygon fill="black" stroke="black" points="854.33,-357.48 861.28,-349.49 850.86,-351.4 854.33,-357.48"/>
<text text-anchor="middle" x="840.74" y="-370.2" font-family="Courier,monospace" font-size="14.00">RET</text>
</g>
<!-- 20&#45;&gt;18 -->
<g id="edge40" class="edge">
<title>20&#45;&gt;18</title>
<path fill="none" stroke="black" d="M700.53,-401.22C695.78,-369.5 694.35,-323.57 716.86,-292 729.84,-273.8 774.9,-254.71 818.37,-239.75"/>
<polygon fill="black" stroke="black" points="819.43,-242.75 827.78,-236.23 817.19,-236.11 819.43,-242.75"/>
<text text-anchor="middle" x="742.11" y="-315.45" font-family="Courier,monospace" font-size="14.00">NUMBER</text>
</g>
<!-- 20&#45;&gt;20 -->
<g id="edge42" class="edge">
<title>20&#45;&gt;20</title>
<path fill="none" stroke="black" stroke-dasharray="5,2" d="M823.96,-447.72C834.78,-445.77 841.61,-442.62 841.61,-438.25 841.61,-435.52 838.95,-433.26 834.3,-431.48"/>
<polygon fill="black" stroke="black" points="835.52,-427.92 824.96,-428.78 833.75,-434.69 835.52,-427.92"/>
<text text-anchor="middle" x="862.24" y="-433.2" font-family="Courier,monospace" font-size="14.00">instr</text>
</g>
<!-- 20&#45;&gt;21 -->
<g id="edge43" class="edge">
<title>20&#45;&gt;21</title>
<path fill="none" stroke="black" stroke-dasharray="5,2" d="M616.91,-401.14C585.07,-389.32 548.92,-376.74 515.36,-367 482.47,-357.45 471.25,-358.38 434.9,-349.27"/>
<polygon fill="black" stroke="black" points="436.08,-345.7 425.52,-346.57 434.32,-352.47 436.08,-345.7"/>
<text text-anchor="middle" x="580.86" y="-370.2" font-family="Courier,monospace" font-size="14.00">expr</text>
</g>
<!-- 24 -->
<g id="node35" class="node">
<title>24</title>
<polygon fill="none" stroke="black" points="672.61,-349 442.11,-349 442.11,-292 672.61,-292 672.61,-349"/>
<text text-anchor="middle" x="557.36" y="-331.7" font-family="Courier,monospace" font-size="14.00">State 24</text>
<text text-anchor="start" x="450.11" y="-299.2" font-family="Courier,monospace" font-size="14.00"> 10 instrs: instr instrs •</text>
</g>
<!-- 20&#45;&gt;24 -->
<g id="edge41" class="edge">
<title>20&#45;&gt;24</title>
<path fill="none" stroke="black" stroke-dasharray="5,2" d="M661.42,-401.26C642.58,-386.82 620.97,-370.25 602.34,-355.97"/>
<polygon fill="black" stroke="black" points="604.8,-352.68 594.73,-349.38 600.54,-358.24 604.8,-352.68"/>
<text text-anchor="middle" x="663.11" y="-370.2" font-family="Courier,monospace" font-size="14.00">instrs</text>
</g>
<!-- 20R9 -->
<g id="node36" class="node">
<title>20R9</title>
<polygon fill="#b2df8a" stroke="black" points="1096.36,-338.5 1065,-320.5 1096.36,-302.5 1127.73,-320.5 1096.36,-338.5"/>
<text text-anchor="middle" x="1096.36" y="-315.45" font-family="Courier,monospace" font-size="14.00">R9</text>
</g>
<!-- 20&#45;&gt;20R9 -->
<g id="edge44" class="edge">
<title>20&#45;&gt;20R9</title>
<path fill="none" stroke="black" d="M823.82,-412.58C908.29,-393.66 1015.06,-367.71 1056.36,-349 1062.91,-346.03 1069.54,-341.99 1075.47,-337.92"/>
<polygon fill="black" stroke="black" points="1077.06,-340.36 1083.09,-331.64 1072.94,-334.7 1077.06,-340.36"/>
</g>
<!-- 21R12 -->
<g id="node37" class="node">
<title>21R12</title>
<polygon fill="#b2df8a" stroke="black" points="346.36,-229 307.04,-211 346.36,-193 385.69,-211 346.36,-229"/>
<text text-anchor="middle" x="346.36" y="-205.95" font-family="Courier,monospace" font-size="14.00">R12</text>
</g>
<!-- 21&#45;&gt;21R12 -->
<g id="edge45" class="edge">
<title>21&#45;&gt;21R12</title>
<path fill="none" stroke="black" d="M346.36,-291.54C346.36,-275.72 346.36,-255.99 346.36,-240.14"/>
<polygon fill="black" stroke="black" points="349.87,-240.4 346.36,-230.4 342.87,-240.4 349.87,-240.4"/>
</g>
<!-- 25 -->
<g id="node38" class="node">
<title>25</title>
<polygon fill="none" stroke="black" points="804.24,-130 532.49,-130 532.49,-73 804.24,-73 804.24,-130"/>
<text text-anchor="middle" x="668.36" y="-112.7" font-family="Courier,monospace" font-size="14.00">State 25</text>
<text text-anchor="start" x="540.49" y="-80.2" font-family="Courier,monospace" font-size="14.00"> 11 instr: RET expr SEMICOLON •</text>
</g>
<!-- 22&#45;&gt;25 -->
<g id="edge46" class="edge">
<title>22&#45;&gt;25</title>
<path fill="none" stroke="black" d="M668.36,-182.04C668.36,-169.59 668.36,-154.74 668.36,-141.25"/>
<polygon fill="black" stroke="black" points="671.87,-141.32 668.36,-131.32 664.87,-141.32 671.87,-141.32"/>
<text text-anchor="middle" x="705.49" y="-151.2" font-family="Courier,monospace" font-size="14.00">SEMICOLON</text>
</g>
<!-- 23R4 -->
<g id="node39" class="node">
<title>23R4</title>
<polygon fill="#b2df8a" stroke="black" points="1500.36,-229 1469,-211 1500.36,-193 1531.73,-211 1500.36,-229"/>
<text text-anchor="middle" x="1500.36" y="-205.95" font-family="Courier,monospace" font-size="14.00">R4</text>
</g>
<!-- 23&#45;&gt;23R4 -->
<g id="edge47" class="edge">
<title>23&#45;&gt;23R4</title>
<path fill="none" stroke="black" d="M1500.36,-291.54C1500.36,-275.72 1500.36,-255.99 1500.36,-240.14"/>
<polygon fill="black" stroke="black" points="1503.87,-240.4 1500.36,-230.4 1496.87,-240.4 1503.87,-240.4"/>
</g>
<!-- 24R10 -->
<g id="node40" class="node">
<title>24R10</title>
<polygon fill="#b2df8a" stroke="black" points="475.36,-229 436.04,-211 475.36,-193 514.69,-211 475.36,-229"/>
<text text-anchor="middle" x="475.36" y="-205.95" font-family="Courier,monospace" font-size="14.00">R10</text>
</g>
<!-- 24&#45;&gt;24R10 -->
<g id="edge48" class="edge">
<title>24&#45;&gt;24R10</title>
<path fill="none" stroke="black" d="M536.03,-291.54C522.18,-273.37 504.4,-250.07 491.68,-233.38"/>
<polygon fill="black" stroke="black" points="494.03,-231.7 485.18,-225.87 488.47,-235.95 494.03,-231.7"/>
</g>
<!-- 25R11 -->
<g id="node41" class="node">
<title>25R11</title>
<polygon fill="#b2df8a" stroke="black" points="668.36,-36 629.04,-18 668.36,0 707.69,-18 668.36,-36"/>
<text text-anchor="middle" x="668.36" y="-12.95" font-family="Courier,monospace" font-size="14.00">R11</text>
</g>
<!-- 25&#45;&gt;25R11 -->
<g id="edge49" class="edge">
<title>25&#45;&gt;25R11</title>
<path fill="none" stroke="black" d="M668.36,-72.91C668.36,-64.53 668.36,-55.31 668.36,-46.91"/>
<polygon fill="black" stroke="black" points="671.87,-47.11 668.36,-37.11 664.87,-47.11 671.87,-47.11"/>
</g>
</g>
</svg>
