<?xml version="1.0" encoding="UTF-8" standalone="no"?>
<!DOCTYPE svg PUBLIC "-//W3C//DTD SVG 1.1//EN"
 "http://www.w3.org/Graphics/SVG/1.1/DTD/svg11.dtd">
<!-- Generated by graphviz version 9.0.0 (20230911.1827)
 -->
<!-- Title: parser.ypp Pages: 1 -->
<svg width="1826pt" height="1502pt"
 viewBox="0.00 0.00 1825.74 1501.50" xmlns="http://www.w3.org/2000/svg" xmlns:xlink="http://www.w3.org/1999/xlink">
<g id="graph0" class="graph" transform="scale(1 1) rotate(0) translate(4 1497.5)">
<title>parser.ypp</title>
<polygon fill="white" stroke="none" points="-4,4 -4,-1497.5 1821.74,-1497.5 1821.74,4 -4,4"/>
<!-- 0 -->
<g id="node1" class="node">
<title>0</title>
<polygon fill="none" stroke="black" points="1336.74,-1493.5 1097.99,-1493.5 1097.99,-1436.5 1336.74,-1436.5 1336.74,-1493.5"/>
<text text-anchor="middle" x="1217.36" y="-1476.2" font-family="Courier,monospace" font-size="14.00">State 0</text>
<text text-anchor="start" x="1105.99" y="-1443.7" font-family="Courier,monospace" font-size="14.00"> &#160;0 $accept: • program $end</text>
</g>
<!-- 1 -->
<g id="node2" class="node">
<title>1</title>
<polygon fill="none" stroke="black" points="970.74,-1258 335.99,-1258 335.99,-1201 970.74,-1201 970.74,-1258"/>
<text text-anchor="middle" x="653.36" y="-1240.7" font-family="Courier,monospace" font-size="14.00">State 1</text>
<text text-anchor="start" x="343.99" y="-1208.2" font-family="Courier,monospace" font-size="14.00"> &#160;4 FUNDEF: FN • IDENTIFIER LPAREN PARAMS RPAREN ARROW LBRACE instrs RBRACE</text>
</g>
<!-- 0&#45;&gt;1 -->
<g id="edge1" class="edge">
<title>0&#45;&gt;1</title>
<path fill="none" stroke="black" d="M1115.77,-1436.02C1068.66,-1422.04 1012.28,-1403.88 962.86,-1384 873.65,-1348.11 774.79,-1296.97 713.36,-1263.76"/>
<polygon fill="black" stroke="black" points="715.24,-1260.8 704.79,-1259.1 711.91,-1266.95 715.24,-1260.8"/>
<text text-anchor="middle" x="971.61" y="-1342.2" font-family="Courier,monospace" font-size="14.00">FN</text>
</g>
<!-- 2 -->
<g id="node3" class="node">
<title>2</title>
<polygon fill="none" stroke="black" points="1568.74,-1375.75 1329.99,-1375.75 1329.99,-1318.75 1568.74,-1318.75 1568.74,-1375.75"/>
<text text-anchor="middle" x="1449.36" y="-1358.45" font-family="Courier,monospace" font-size="14.00">State 2</text>
<text text-anchor="start" x="1337.99" y="-1325.95" font-family="Courier,monospace" font-size="14.00"> &#160;0 $accept: program • $end</text>
</g>
<!-- 0&#45;&gt;2 -->
<g id="edge2" class="edge">
<title>0&#45;&gt;2</title>
<path fill="none" stroke="black" stroke-dasharray="5,2" d="M1273.23,-1436.13C1306.42,-1419.57 1348.7,-1398.48 1383.51,-1381.11"/>
<polygon fill="black" stroke="black" points="1384.84,-1384.35 1392.23,-1376.76 1381.72,-1378.09 1384.84,-1384.35"/>
<text text-anchor="middle" x="1369.24" y="-1405.2" font-family="Courier,monospace" font-size="14.00">program</text>
</g>
<!-- 3 -->
<g id="node4" class="node">
<title>3</title>
<polygon fill="none" stroke="black" points="1784.11,-1375.75 1586.61,-1375.75 1586.61,-1318.75 1784.11,-1318.75 1784.11,-1375.75"/>
<text text-anchor="middle" x="1685.36" y="-1358.45" font-family="Courier,monospace" font-size="14.00">State 3</text>
<text text-anchor="start" x="1594.61" y="-1325.95" font-family="Courier,monospace" font-size="14.00"> &#160;1 program: FUNDEFS •</text>
</g>
<!-- 0&#45;&gt;3 -->
<g id="edge3" class="edge">
<title>0&#45;&gt;3</title>
<path fill="none" stroke="black" stroke-dasharray="5,2" d="M1336.88,-1440.6C1407.31,-1426.03 1497.9,-1405.92 1577.36,-1384 1582.51,-1382.58 1587.77,-1381.06 1593.07,-1379.48"/>
<polygon fill="black" stroke="black" points="1593.96,-1382.87 1602.51,-1376.61 1591.92,-1376.17 1593.96,-1382.87"/>
<text text-anchor="middle" x="1528.24" y="-1405.2" font-family="Courier,monospace" font-size="14.00">FUNDEFS</text>
</g>
<!-- 4 -->
<g id="node5" class="node">
<title>4</title>
<polygon fill="none" stroke="black" points="1243.99,-1384 988.74,-1384 988.74,-1310.5 1243.99,-1310.5 1243.99,-1384"/>
<text text-anchor="middle" x="1116.36" y="-1366.7" font-family="Courier,monospace" font-size="14.00">State 4</text>
<text text-anchor="start" x="996.74" y="-1334.2" font-family="Courier,monospace" font-size="14.00"> &#160;2 FUNDEFS: FUNDEF • FUNDEFS</text>
<text text-anchor="start" x="996.74" y="-1317.7" font-family="Courier,monospace" font-size="14.00"> &#160;3 &#160;&#160;&#160;&#160;&#160;&#160;&#160;| FUNDEF •</text>
</g>
<!-- 0&#45;&gt;4 -->
<g id="edge4" class="edge">
<title>0&#45;&gt;4</title>
<path fill="none" stroke="black" stroke-dasharray="5,2" d="M1193.17,-1436.27C1181.76,-1423.19 1167.85,-1407.26 1155.03,-1392.56"/>
<polygon fill="black" stroke="black" points="1157.84,-1390.45 1148.62,-1385.22 1152.56,-1395.06 1157.84,-1390.45"/>
<text text-anchor="middle" x="1201.11" y="-1405.2" font-family="Courier,monospace" font-size="14.00">FUNDEF</text>
</g>
<!-- 5 -->
<g id="node6" class="node">
<title>5</title>
<polygon fill="none" stroke="black" points="970.74,-1148.5 335.99,-1148.5 335.99,-1091.5 970.74,-1091.5 970.74,-1148.5"/>
<text text-anchor="middle" x="653.36" y="-1131.2" font-family="Courier,monospace" font-size="14.00">State 5</text>
<text text-anchor="start" x="343.99" y="-1098.7" font-family="Courier,monospace" font-size="14.00"> &#160;4 FUNDEF: FN IDENTIFIER • LPAREN PARAMS RPAREN ARROW LBRACE instrs RBRACE</text>
</g>
<!-- 1&#45;&gt;5 -->
<g id="edge5" class="edge">
<title>1&#45;&gt;5</title>
<path fill="none" stroke="black" d="M653.36,-1200.54C653.36,-1188.22 653.36,-1173.53 653.36,-1160.15"/>
<polygon fill="black" stroke="black" points="656.87,-1160.34 653.36,-1150.34 649.87,-1160.34 656.87,-1160.34"/>
<text text-anchor="middle" x="694.61" y="-1169.7" font-family="Courier,monospace" font-size="14.00">IDENTIFIER</text>
</g>
<!-- 6 -->
<g id="node7" class="node">
<title>6</title>
<polygon fill="none" stroke="black" points="1581.74,-1258 1342.99,-1258 1342.99,-1201 1581.74,-1201 1581.74,-1258"/>
<text text-anchor="middle" x="1462.36" y="-1240.7" font-family="Courier,monospace" font-size="14.00">State 6</text>
<text text-anchor="start" x="1350.99" y="-1208.2" font-family="Courier,monospace" font-size="14.00"> &#160;0 $accept: program $end •</text>
</g>
<!-- 2&#45;&gt;6 -->
<g id="edge6" class="edge">
<title>2&#45;&gt;6</title>
<path fill="none" stroke="black" d="M1452.48,-1318.52C1454.12,-1303.89 1456.17,-1285.68 1457.97,-1269.63"/>
<polygon fill="black" stroke="black" points="1461.42,-1270.23 1459.06,-1259.9 1454.47,-1269.45 1461.42,-1270.23"/>
<text text-anchor="middle" x="1473.86" y="-1279.2" font-family="Courier,monospace" font-size="14.00">$end</text>
</g>
<!-- 3R1 -->
<g id="node8" class="node">
<title>3R1</title>
<polygon fill="#b2df8a" stroke="black" points="1685.36,-1247.5 1654,-1229.5 1685.36,-1211.5 1716.73,-1229.5 1685.36,-1247.5"/>
<text text-anchor="middle" x="1685.36" y="-1224.45" font-family="Courier,monospace" font-size="14.00">R1</text>
</g>
<!-- 3&#45;&gt;3R1 -->
<g id="edge7" class="edge">
<title>3&#45;&gt;3R1</title>
<path fill="none" stroke="black" d="M1685.36,-1318.52C1685.36,-1300.62 1685.36,-1277.36 1685.36,-1259.25"/>
<polygon fill="black" stroke="black" points="1688.87,-1259.45 1685.36,-1249.45 1681.87,-1259.45 1688.87,-1259.45"/>
</g>
<!-- 4&#45;&gt;1 -->
<g id="edge8" class="edge">
<title>4&#45;&gt;1</title>
<path fill="none" stroke="black" d="M988.32,-1314.24C922.02,-1297.66 841.47,-1277.53 775.98,-1261.15"/>
<polygon fill="black" stroke="black" points="777.2,-1257.85 766.65,-1258.82 775.5,-1264.64 777.2,-1257.85"/>
<text text-anchor="middle" x="907.61" y="-1279.2" font-family="Courier,monospace" font-size="14.00">FN</text>
</g>
<!-- 4&#45;&gt;4 -->
<g id="edge10" class="edge">
<title>4&#45;&gt;4</title>
<path fill="none" stroke="black" stroke-dasharray="5,2" d="M1244.17,-1356.47C1255.14,-1354.51 1261.99,-1351.43 1261.99,-1347.25 1261.99,-1344.7 1259.45,-1342.56 1254.98,-1340.84"/>
<polygon fill="black" stroke="black" points="1256.19,-1337.54 1245.63,-1338.41 1254.43,-1344.31 1256.19,-1337.54"/>
<text text-anchor="middle" x="1286.74" y="-1342.2" font-family="Courier,monospace" font-size="14.00">FUNDEF</text>
</g>
<!-- 7 -->
<g id="node9" class="node">
<title>7</title>
<polygon fill="none" stroke="black" points="1243.99,-1258 988.74,-1258 988.74,-1201 1243.99,-1201 1243.99,-1258"/>
<text text-anchor="middle" x="1116.36" y="-1240.7" font-family="Courier,monospace" font-size="14.00">State 7</text>
<text text-anchor="start" x="996.74" y="-1208.2" font-family="Courier,monospace" font-size="14.00"> &#160;2 FUNDEFS: FUNDEF FUNDEFS •</text>
</g>
<!-- 4&#45;&gt;7 -->
<g id="edge9" class="edge">
<title>4&#45;&gt;7</title>
<path fill="none" stroke="black" stroke-dasharray="5,2" d="M1116.36,-1310.26C1116.36,-1297.33 1116.36,-1282.68 1116.36,-1269.5"/>
<polygon fill="black" stroke="black" points="1119.87,-1269.89 1116.36,-1259.89 1112.87,-1269.89 1119.87,-1269.89"/>
<text text-anchor="middle" x="1145.24" y="-1279.2" font-family="Courier,monospace" font-size="14.00">FUNDEFS</text>
</g>
<!-- 4R3 -->
<g id="node10" class="node">
<title>4R3</title>
<polygon fill="#b2df8a" stroke="black" points="1293.36,-1247.5 1262,-1229.5 1293.36,-1211.5 1324.73,-1229.5 1293.36,-1247.5"/>
<text text-anchor="middle" x="1293.36" y="-1224.45" font-family="Courier,monospace" font-size="14.00">R3</text>
</g>
<!-- 4&#45;&gt;4R3 -->
<g id="edge11" class="edge">
<title>4&#45;&gt;4R3</title>
<path fill="none" stroke="black" d="M1173.27,-1310.13C1197.99,-1294.3 1227.22,-1275.4 1253.36,-1258 1258.89,-1254.32 1264.8,-1250.31 1270.34,-1246.51"/>
<polygon fill="black" stroke="black" points="1272.25,-1249.44 1278.49,-1240.88 1268.27,-1243.68 1272.25,-1249.44"/>
</g>
<!-- 8 -->
<g id="node11" class="node">
<title>8</title>
<polygon fill="none" stroke="black" points="970.74,-1039 335.99,-1039 335.99,-982 970.74,-982 970.74,-1039"/>
<text text-anchor="middle" x="653.36" y="-1021.7" font-family="Courier,monospace" font-size="14.00">State 8</text>
<text text-anchor="start" x="343.99" y="-989.2" font-family="Courier,monospace" font-size="14.00"> &#160;4 FUNDEF: FN IDENTIFIER LPAREN • PARAMS RPAREN ARROW LBRACE instrs RBRACE</text>
</g>
<!-- 5&#45;&gt;8 -->
<g id="edge12" class="edge">
<title>5&#45;&gt;8</title>
<path fill="none" stroke="black" d="M653.36,-1091.04C653.36,-1078.72 653.36,-1064.03 653.36,-1050.65"/>
<polygon fill="black" stroke="black" points="656.87,-1050.84 653.36,-1040.84 649.87,-1050.84 656.87,-1050.84"/>
<text text-anchor="middle" x="678.11" y="-1060.2" font-family="Courier,monospace" font-size="14.00">LPAREN</text>
</g>
<!-- 6R0 -->
<g id="node12" class="node">
<title>6R0</title>
<polygon fill="#a6cee3" stroke="black" points="1462.36,-1138 1423.04,-1120 1462.36,-1102 1501.69,-1120 1462.36,-1138"/>
<text text-anchor="middle" x="1462.36" y="-1114.95" font-family="Courier,monospace" font-size="14.00">Acc</text>
</g>
<!-- 6&#45;&gt;6R0 -->
<g id="edge13" class="edge">
<title>6&#45;&gt;6R0</title>
<path fill="none" stroke="black" d="M1462.36,-1200.54C1462.36,-1184.87 1462.36,-1165.38 1462.36,-1149.61"/>
<polygon fill="black" stroke="black" points="1465.87,-1149.91 1462.36,-1139.91 1458.87,-1149.91 1465.87,-1149.91"/>
</g>
<!-- 7R2 -->
<g id="node13" class="node">
<title>7R2</title>
<polygon fill="#b2df8a" stroke="black" points="1116.36,-1138 1085,-1120 1116.36,-1102 1147.73,-1120 1116.36,-1138"/>
<text text-anchor="middle" x="1116.36" y="-1114.95" font-family="Courier,monospace" font-size="14.00">R2</text>
</g>
<!-- 7&#45;&gt;7R2 -->
<g id="edge14" class="edge">
<title>7&#45;&gt;7R2</title>
<path fill="none" stroke="black" d="M1116.36,-1200.54C1116.36,-1184.87 1116.36,-1165.38 1116.36,-1149.61"/>
<polygon fill="black" stroke="black" points="1119.87,-1149.91 1116.36,-1139.91 1112.87,-1149.91 1119.87,-1149.91"/>
</g>
<!-- 9 -->
<g id="node14" class="node">
<title>9</title>
<polygon fill="none" stroke="black" points="584.24,-694 378.49,-694 378.49,-637 584.24,-637 584.24,-694"/>
<text text-anchor="middle" x="481.36" y="-676.7" font-family="Courier,monospace" font-size="14.00">State 9</text>
<text text-anchor="start" x="386.49" y="-644.2" font-family="Courier,monospace" font-size="14.00"> &#160;8 PARAM: IDENTIFIER •</text>
</g>
<!-- 8&#45;&gt;9 -->
<g id="edge15" class="edge">
<title>8&#45;&gt;9</title>
<path fill="none" stroke="black" d="M564.47,-981.66C539.77,-969.56 515.57,-952.68 500.36,-929.5 455.57,-861.21 463.98,-760.37 473.2,-705.51"/>
<polygon fill="black" stroke="black" points="476.64,-706.16 474.95,-695.7 469.75,-704.93 476.64,-706.16"/>
<text text-anchor="middle" x="510.61" y="-824.7" font-family="Courier,monospace" font-size="14.00">IDENTIFIER</text>
</g>
<!-- 10 -->
<g id="node15" class="node">
<title>10</title>
<polygon fill="none" stroke="black" points="1143.74,-921.25 508.99,-921.25 508.99,-864.25 1143.74,-864.25 1143.74,-921.25"/>
<text text-anchor="middle" x="826.36" y="-903.95" font-family="Courier,monospace" font-size="14.00">State 10</text>
<text text-anchor="start" x="516.99" y="-871.45" font-family="Courier,monospace" font-size="14.00"> &#160;4 FUNDEF: FN IDENTIFIER LPAREN PARAMS • RPAREN ARROW LBRACE instrs RBRACE</text>
</g>
<!-- 8&#45;&gt;10 -->
<g id="edge16" class="edge">
<title>8&#45;&gt;10</title>
<path fill="none" stroke="black" stroke-dasharray="5,2" d="M694.8,-981.77C718.91,-965.64 749.5,-945.18 775.12,-928.04"/>
<polygon fill="black" stroke="black" points="777.04,-930.96 783.41,-922.49 773.15,-925.14 777.04,-930.96"/>
<text text-anchor="middle" x="770.11" y="-950.7" font-family="Courier,monospace" font-size="14.00">PARAMS</text>
</g>
<!-- 11 -->
<g id="node16" class="node">
<title>11</title>
<polygon fill="none" stroke="black" points="448.36,-929.5 168.36,-929.5 168.36,-856 448.36,-856 448.36,-929.5"/>
<text text-anchor="middle" x="308.36" y="-912.2" font-family="Courier,monospace" font-size="14.00">State 11</text>
<text text-anchor="start" x="176.36" y="-879.7" font-family="Courier,monospace" font-size="14.00"> &#160;5 PARAMS: PARAM •</text>
<text text-anchor="start" x="176.36" y="-863.2" font-family="Courier,monospace" font-size="14.00"> &#160;6 &#160;&#160;&#160;&#160;&#160;&#160;| PARAM • COMMA PARAMS</text>
</g>
<!-- 8&#45;&gt;11 -->
<g id="edge17" class="edge">
<title>8&#45;&gt;11</title>
<path fill="none" stroke="black" stroke-dasharray="5,2" d="M481.26,-981.55C462.39,-976.57 443.67,-970.76 426.11,-964 407,-956.63 387.43,-946.28 369.87,-935.78"/>
<polygon fill="black" stroke="black" points="371.98,-932.97 361.63,-930.74 368.33,-938.95 371.98,-932.97"/>
<text text-anchor="middle" x="446.99" y="-950.7" font-family="Courier,monospace" font-size="14.00">PARAM</text>
</g>
<!-- 8R7 -->
<g id="node17" class="node">
<title>8R7</title>
<polygon fill="#b2df8a" stroke="black" points="1193.36,-910.75 1162,-892.75 1193.36,-874.75 1224.73,-892.75 1193.36,-910.75"/>
<text text-anchor="middle" x="1193.36" y="-887.7" font-family="Courier,monospace" font-size="14.00">R7</text>
</g>
<!-- 8&#45;&gt;8R7 -->
<g id="edge18" class="edge">
<title>8&#45;&gt;8R7</title>
<path fill="none" stroke="black" d="M971.11,-985.75C1033.12,-973.65 1096.25,-955.78 1152.36,-929.5 1160.71,-925.59 1168.66,-919.46 1175.29,-913.38"/>
<polygon fill="black" stroke="black" points="1177.71,-915.9 1182.36,-906.38 1172.79,-910.93 1177.71,-915.9"/>
</g>
<!-- 9R8 -->
<g id="node18" class="node">
<title>9R8</title>
<polygon fill="#b2df8a" stroke="black" points="481.36,-574 450,-556 481.36,-538 512.73,-556 481.36,-574"/>
<text text-anchor="middle" x="481.36" y="-550.95" font-family="Courier,monospace" font-size="14.00">R8</text>
</g>
<!-- 9&#45;&gt;9R8 -->
<g id="edge19" class="edge">
<title>9&#45;&gt;9R8</title>
<path fill="none" stroke="black" d="M481.36,-636.54C481.36,-620.87 481.36,-601.38 481.36,-585.61"/>
<polygon fill="black" stroke="black" points="484.87,-585.91 481.36,-575.91 477.87,-585.91 484.87,-585.91"/>
</g>
<!-- 12 -->
<g id="node19" class="node">
<title>12</title>
<polygon fill="none" stroke="black" points="1189.74,-803.5 554.99,-803.5 554.99,-746.5 1189.74,-746.5 1189.74,-803.5"/>
<text text-anchor="middle" x="872.36" y="-786.2" font-family="Courier,monospace" font-size="14.00">State 12</text>
<text text-anchor="start" x="562.99" y="-753.7" font-family="Courier,monospace" font-size="14.00"> &#160;4 FUNDEF: FN IDENTIFIER LPAREN PARAMS RPAREN • ARROW LBRACE instrs RBRACE</text>
</g>
<!-- 10&#45;&gt;12 -->
<g id="edge20" class="edge">
<title>10&#45;&gt;12</title>
<path fill="none" stroke="black" d="M837.38,-864.02C843.31,-849.1 850.72,-830.47 857.19,-814.19"/>
<polygon fill="black" stroke="black" points="860.28,-815.89 860.72,-805.31 853.77,-813.31 860.28,-815.89"/>
<text text-anchor="middle" x="879.11" y="-824.7" font-family="Courier,monospace" font-size="14.00">RPAREN</text>
</g>
<!-- 13 -->
<g id="node20" class="node">
<title>13</title>
<polygon fill="none" stroke="black" points="443.36,-803.5 163.36,-803.5 163.36,-746.5 443.36,-746.5 443.36,-803.5"/>
<text text-anchor="middle" x="303.36" y="-786.2" font-family="Courier,monospace" font-size="14.00">State 13</text>
<text text-anchor="start" x="171.36" y="-753.7" font-family="Courier,monospace" font-size="14.00"> &#160;6 PARAMS: PARAM COMMA • PARAMS</text>
</g>
<!-- 11&#45;&gt;13 -->
<g id="edge21" class="edge">
<title>11&#45;&gt;13</title>
<path fill="none" stroke="black" d="M282.43,-855.71C279.42,-850.02 276.83,-844.02 275.11,-838 272.85,-830.02 273.94,-821.76 276.73,-813.97"/>
<polygon fill="black" stroke="black" points="279.81,-815.64 280.78,-805.09 273.44,-812.73 279.81,-815.64"/>
<text text-anchor="middle" x="295.99" y="-824.7" font-family="Courier,monospace" font-size="14.00">COMMA</text>
</g>
<!-- 11R5 -->
<g id="node21" class="node">
<title>11R5</title>
<polygon fill="#b2df8a" stroke="black" points="114.36,-793 83,-775 114.36,-757 145.73,-775 114.36,-793"/>
<text text-anchor="middle" x="114.36" y="-769.95" font-family="Courier,monospace" font-size="14.00">R5</text>
</g>
<!-- 11&#45;&gt;11R5 -->
<g id="edge22" class="edge">
<title>11&#45;&gt;11R5</title>
<path fill="none" stroke="black" d="M242.47,-855.56C214.94,-840.03 182.8,-821.38 154.36,-803.5 148.75,-799.97 142.8,-796.01 137.26,-792.21"/>
<polygon fill="black" stroke="black" points="139.33,-789.39 129.12,-786.56 135.34,-795.14 139.33,-789.39"/>
</g>
<!-- 14 -->
<g id="node22" class="node">
<title>14</title>
<polygon fill="none" stroke="black" points="1236.74,-694 601.99,-694 601.99,-637 1236.74,-637 1236.74,-694"/>
<text text-anchor="middle" x="919.36" y="-676.7" font-family="Courier,monospace" font-size="14.00">State 14</text>
<text text-anchor="start" x="609.99" y="-644.2" font-family="Courier,monospace" font-size="14.00"> &#160;4 FUNDEF: FN IDENTIFIER LPAREN PARAMS RPAREN ARROW • LBRACE instrs RBRACE</text>
</g>
<!-- 12&#45;&gt;14 -->
<g id="edge23" class="edge">
<title>12&#45;&gt;14</title>
<path fill="none" stroke="black" d="M884.59,-746.04C890.09,-733.47 896.66,-718.44 902.6,-704.84"/>
<polygon fill="black" stroke="black" points="905.79,-706.28 906.59,-695.71 899.38,-703.47 905.79,-706.28"/>
<text text-anchor="middle" x="919.99" y="-715.2" font-family="Courier,monospace" font-size="14.00">ARROW</text>
</g>
<!-- 13&#45;&gt;9 -->
<g id="edge24" class="edge">
<title>13&#45;&gt;9</title>
<path fill="none" stroke="black" d="M336.73,-746.09C351.06,-734.79 368.3,-722.05 384.86,-712 391.97,-707.69 399.54,-703.49 407.21,-699.5"/>
<polygon fill="black" stroke="black" points="408.61,-702.71 415.95,-695.07 405.45,-696.47 408.61,-702.71"/>
<text text-anchor="middle" x="426.61" y="-715.2" font-family="Courier,monospace" font-size="14.00">IDENTIFIER</text>
</g>
<!-- 13&#45;&gt;11 -->
<g id="edge26" class="edge">
<title>13&#45;&gt;11</title>
<path fill="none" stroke="black" stroke-dasharray="5,2" d="M312.59,-803.65C314.16,-809.48 315.54,-815.64 316.36,-821.5 317.39,-828.85 317.49,-836.64 317.04,-844.26"/>
<polygon fill="black" stroke="black" points="313.57,-843.82 316.12,-854.1 320.54,-844.47 313.57,-843.82"/>
<text text-anchor="middle" x="337.99" y="-824.7" font-family="Courier,monospace" font-size="14.00">PARAM</text>
</g>
<!-- 15 -->
<g id="node23" class="node">
<title>15</title>
<polygon fill="none" stroke="black" points="360.36,-694 80.36,-694 80.36,-637 360.36,-637 360.36,-694"/>
<text text-anchor="middle" x="220.36" y="-676.7" font-family="Courier,monospace" font-size="14.00">State 15</text>
<text text-anchor="start" x="88.36" y="-644.2" font-family="Courier,monospace" font-size="14.00"> &#160;6 PARAMS: PARAM COMMA PARAMS •</text>
</g>
<!-- 13&#45;&gt;15 -->
<g id="edge25" class="edge">
<title>13&#45;&gt;15</title>
<path fill="none" stroke="black" stroke-dasharray="5,2" d="M281.77,-746.04C271.69,-732.97 259.54,-717.24 248.73,-703.24"/>
<polygon fill="black" stroke="black" points="251.65,-701.3 242.77,-695.52 246.11,-705.58 251.65,-701.3"/>
<text text-anchor="middle" x="292.11" y="-715.2" font-family="Courier,monospace" font-size="14.00">PARAMS</text>
</g>
<!-- 13R7 -->
<g id="node24" class="node">
<title>13R7</title>
<polygon fill="#b2df8a" stroke="black" points="31.36,-683.5 0,-665.5 31.36,-647.5 62.73,-665.5 31.36,-683.5"/>
<text text-anchor="middle" x="31.36" y="-660.45" font-family="Courier,monospace" font-size="14.00">R7</text>
</g>
<!-- 13&#45;&gt;13R7 -->
<g id="edge27" class="edge">
<title>13&#45;&gt;13R7</title>
<path fill="none" stroke="black" d="M203.31,-746.03C161.48,-732.68 113.02,-715.01 71.36,-694 65.2,-690.89 58.87,-686.95 53.13,-683.03"/>
<polygon fill="black" stroke="black" points="55.54,-680.45 45.37,-677.49 51.47,-686.15 55.54,-680.45"/>
</g>
<!-- 16 -->
<g id="node25" class="node">
<title>16</title>
<polygon fill="none" stroke="black" points="1236.74,-584.5 601.99,-584.5 601.99,-527.5 1236.74,-527.5 1236.74,-584.5"/>
<text text-anchor="middle" x="919.36" y="-567.2" font-family="Courier,monospace" font-size="14.00">State 16</text>
<text text-anchor="start" x="609.99" y="-534.7" font-family="Courier,monospace" font-size="14.00"> &#160;4 FUNDEF: FN IDENTIFIER LPAREN PARAMS RPAREN ARROW LBRACE • instrs RBRACE</text>
</g>
<!-- 14&#45;&gt;16 -->
<g id="edge28" class="edge">
<title>14&#45;&gt;16</title>
<path fill="none" stroke="black" d="M919.36,-636.54C919.36,-624.22 919.36,-609.53 919.36,-596.15"/>
<polygon fill="black" stroke="black" points="922.87,-596.34 919.36,-586.34 915.87,-596.34 922.87,-596.34"/>
<text text-anchor="middle" x="944.11" y="-605.7" font-family="Courier,monospace" font-size="14.00">LBRACE</text>
</g>
<!-- 15R6 -->
<g id="node26" class="node">
<title>15R6</title>
<polygon fill="#b2df8a" stroke="black" points="220.36,-574 189,-556 220.36,-538 251.73,-556 220.36,-574"/>
<text text-anchor="middle" x="220.36" y="-550.95" font-family="Courier,monospace" font-size="14.00">R6</text>
</g>
<!-- 15&#45;&gt;15R6 -->
<g id="edge29" class="edge">
<title>15&#45;&gt;15R6</title>
<path fill="none" stroke="black" d="M220.36,-636.54C220.36,-620.87 220.36,-601.38 220.36,-585.61"/>
<polygon fill="black" stroke="black" points="223.87,-585.91 220.36,-575.91 216.87,-585.91 223.87,-585.91"/>
</g>
<!-- 17 -->
<g id="node27" class="node">
<title>17</title>
<polygon fill="none" stroke="black" points="1047.24,-349 775.49,-349 775.49,-292 1047.24,-292 1047.24,-349"/>
<text text-anchor="middle" x="911.36" y="-331.7" font-family="Courier,monospace" font-size="14.00">State 17</text>
<text text-anchor="start" x="783.49" y="-299.2" font-family="Courier,monospace" font-size="14.00"> 11 instr: RET • expr SEMICOLON</text>
</g>
<!-- 16&#45;&gt;17 -->
<g id="edge30" class="edge">
<title>16&#45;&gt;17</title>
<path fill="none" stroke="black" d="M918.42,-527.3C917,-485.87 914.32,-407.61 912.7,-360.45"/>
<polygon fill="black" stroke="black" points="916.21,-360.55 912.36,-350.68 909.21,-360.79 916.21,-360.55"/>
<text text-anchor="middle" x="929.74" y="-433.2" font-family="Courier,monospace" font-size="14.00">RET</text>
</g>
<!-- 18 -->
<g id="node28" class="node">
<title>18</title>
<polygon fill="none" stroke="black" points="993.61,-239.5 829.11,-239.5 829.11,-182.5 993.61,-182.5 993.61,-239.5"/>
<text text-anchor="middle" x="911.36" y="-222.2" font-family="Courier,monospace" font-size="14.00">State 18</text>
<text text-anchor="start" x="837.11" y="-189.7" font-family="Courier,monospace" font-size="14.00"> 13 expr: NUMBER •</text>
</g>
<!-- 16&#45;&gt;18 -->
<g id="edge31" class="edge">
<title>16&#45;&gt;18</title>
<path fill="none" stroke="black" d="M973.07,-527.13C1056.15,-480.29 1199.94,-382.08 1136.36,-292 1106.65,-249.9 1052.76,-229.82 1005.16,-220.31"/>
<polygon fill="black" stroke="black" points="1005.81,-216.87 995.34,-218.49 1004.54,-223.75 1005.81,-216.87"/>
<text text-anchor="middle" x="1171.11" y="-370.2" font-family="Courier,monospace" font-size="14.00">NUMBER</text>
</g>
<!-- 19 -->
<g id="node29" class="node">
<title>19</title>
<polygon fill="none" stroke="black" points="1817.74,-466.75 1182.99,-466.75 1182.99,-409.75 1817.74,-409.75 1817.74,-466.75"/>
<text text-anchor="middle" x="1500.36" y="-449.45" font-family="Courier,monospace" font-size="14.00">State 19</text>
<text text-anchor="start" x="1190.99" y="-416.95" font-family="Courier,monospace" font-size="14.00"> &#160;4 FUNDEF: FN IDENTIFIER LPAREN PARAMS RPAREN ARROW LBRACE instrs • RBRACE</text>
</g>
<!-- 16&#45;&gt;19 -->
<g id="edge32" class="edge">
<title>16&#45;&gt;19</title>
<path fill="none" stroke="black" stroke-dasharray="5,2" d="M1076.86,-527.06C1107.57,-521.4 1139.5,-515.39 1169.36,-509.5 1232.71,-497.02 1302.68,-482.3 1361.9,-469.58"/>
<polygon fill="black" stroke="black" points="1362.31,-473.07 1371.35,-467.54 1360.84,-466.22 1362.31,-473.07"/>
<text text-anchor="middle" x="1267.11" y="-496.2" font-family="Courier,monospace" font-size="14.00">instrs</text>
</g>
<!-- 20 -->
<g id="node30" class="node">
<title>20</title>
<polygon fill="none" stroke="black" points="823.61,-475 593.11,-475 593.11,-401.5 823.61,-401.5 823.61,-475"/>
<text text-anchor="middle" x="708.36" y="-457.7" font-family="Courier,monospace" font-size="14.00">State 20</text>
<text text-anchor="start" x="601.11" y="-425.2" font-family="Courier,monospace" font-size="14.00"> &#160;9 instrs: instr •</text>
<text text-anchor="start" x="601.11" y="-408.7" font-family="Courier,monospace" font-size="14.00"> 10 &#160;&#160;&#160;&#160;&#160;&#160;| instr • instrs</text>
</g>
<!-- 16&#45;&gt;20 -->
<g id="edge33" class="edge">
<title>16&#45;&gt;20</title>
<path fill="none" stroke="black" stroke-dasharray="5,2" d="M868.56,-527.13C843.25,-513.24 812.14,-496.18 784.09,-480.79"/>
<polygon fill="black" stroke="black" points="786.09,-477.89 775.64,-476.15 782.72,-484.03 786.09,-477.89"/>
<text text-anchor="middle" x="853.99" y="-496.2" font-family="Courier,monospace" font-size="14.00">instr</text>
</g>
<!-- 21 -->
<g id="node31" class="node">
<title>21</title>
<polygon fill="none" stroke="black" points="424.49,-349 268.24,-349 268.24,-292 424.49,-292 424.49,-349"/>
<text text-anchor="middle" x="346.36" y="-331.7" font-family="Courier,monospace" font-size="14.00">State 21</text>
<text text-anchor="start" x="276.24" y="-299.2" font-family="Courier,monospace" font-size="14.00"> 12 instr: expr •</text>
</g>
<!-- 16&#45;&gt;21 -->
<g id="edge34" class="edge">
<title>16&#45;&gt;21</title>
<path fill="none" stroke="black" stroke-dasharray="5,2" d="M716.2,-527.02C661.16,-515.15 602.66,-498.43 551.36,-475 486.32,-445.29 422.09,-392.33 383.32,-357.05"/>
<polygon fill="black" stroke="black" points="385.82,-354.59 376.09,-350.39 381.08,-359.74 385.82,-354.59"/>
<text text-anchor="middle" x="567.86" y="-433.2" font-family="Courier,monospace" font-size="14.00">expr</text>
</g>
<!-- 17&#45;&gt;18 -->
<g id="edge35" class="edge">
<title>17&#45;&gt;18</title>
<path fill="none" stroke="black" d="M911.36,-291.54C911.36,-279.22 911.36,-264.53 911.36,-251.15"/>
<polygon fill="black" stroke="black" points="914.87,-251.34 911.36,-241.34 907.87,-251.34 914.87,-251.34"/>
<text text-anchor="middle" x="936.11" y="-260.7" font-family="Courier,monospace" font-size="14.00">NUMBER</text>
</g>
<!-- 22 -->
<g id="node32" class="node">
<title>22</title>
<polygon fill="none" stroke="black" points="804.24,-239.5 532.49,-239.5 532.49,-182.5 804.24,-182.5 804.24,-239.5"/>
<text text-anchor="middle" x="668.36" y="-222.2" font-family="Courier,monospace" font-size="14.00">State 22</text>
<text text-anchor="start" x="540.49" y="-189.7" font-family="Courier,monospace" font-size="14.00"> 11 instr: RET expr • SEMICOLON</text>
</g>
<!-- 17&#45;&gt;22 -->
<g id="edge36" class="edge">
<title>17&#45;&gt;22</title>
<path fill="none" stroke="black" stroke-dasharray="5,2" d="M848.15,-291.54C815.53,-277.1 775.56,-259.42 741.59,-244.39"/>
<polygon fill="black" stroke="black" points="743.2,-241.28 732.64,-240.44 740.37,-247.68 743.2,-241.28"/>
<text text-anchor="middle" x="821.86" y="-260.7" font-family="Courier,monospace" font-size="14.00">expr</text>
</g>
<!-- 18R13 -->
<g id="node33" class="node">
<title>18R13</title>
<polygon fill="#b2df8a" stroke="black" points="911.36,-119.5 872.04,-101.5 911.36,-83.5 950.69,-101.5 911.36,-119.5"/>
<text text-anchor="middle" x="911.36" y="-96.45" font-family="Courier,monospace" font-size="14.00">R13</text>
</g>
<!-- 18&#45;&gt;18R13 -->
<g id="edge37" class="edge">
<title>18&#45;&gt;18R13</title>
<path fill="none" stroke="black" d="M911.36,-182.04C911.36,-166.37 911.36,-146.88 911.36,-131.11"/>
<polygon fill="black" stroke="black" points="914.87,-131.41 911.36,-121.41 907.87,-131.41 914.87,-131.41"/>
</g>
<!-- 23 -->
<g id="node34" class="node">
<title>23</title>
<polygon fill="none" stroke="black" points="1817.74,-349 1182.99,-349 1182.99,-292 1817.74,-292 1817.74,-349"/>
<text text-anchor="middle" x="1500.36" y="-331.7" font-family="Courier,monospace" font-size="14.00">State 23</text>
<text text-anchor="start" x="1190.99" y="-299.2" font-family="Courier,monospace" font-size="14.00"> &#160;4 FUNDEF: FN IDENTIFIER LPAREN PARAMS RPAREN ARROW LBRACE instrs RBRACE •</text>
</g>
<!-- 19&#45;&gt;23 -->
<g id="edge38" class="edge">
<title>19&#45;&gt;23</title>
<path fill="none" stroke="black" d="M1500.36,-409.52C1500.36,-394.89 1500.36,-376.68 1500.36,-360.63"/>
<polygon fill="black" stroke="black" points="1503.87,-360.91 1500.36,-350.91 1496.87,-360.91 1503.87,-360.91"/>
<text text-anchor="middle" x="1525.11" y="-370.2" font-family="Courier,monospace" font-size="14.00">RBRACE</text>
</g>
<!-- 20&#45;&gt;17 -->
<g id="edge39" class="edge">
<title>20&#45;&gt;17</title>
<path fill="none" stroke="black" d="M771.76,-401.1C797.54,-386.4 827.15,-369.52 852.45,-355.09"/>
<polygon fill="black" stroke="black" points="854.01,-358.23 860.97,-350.24 850.55,-352.15 854.01,-358.23"/>
<text text-anchor="middle" x="840.74" y="-370.2" font-family="Courier,monospace" font-size="14.00">RET</text>
</g>
<!-- 20&#45;&gt;18 -->
<g id="edge40" class="edge">
<title>20&#45;&gt;18</title>
<path fill="none" stroke="black" d="M700.53,-401.22C695.78,-369.5 694.35,-323.57 716.86,-292 729.82,-273.84 774.71,-254.79 818.1,-239.84"/>
<polygon fill="black" stroke="black" points="819,-243.23 827.35,-236.71 816.76,-236.6 819,-243.23"/>
<text text-anchor="middle" x="742.11" y="-315.45" font-family="Courier,monospace" font-size="14.00">NUMBER</text>
</g>
<!-- 20&#45;&gt;20 -->
<g id="edge42" class="edge">
<title>20&#45;&gt;20</title>
<path fill="none" stroke="black" stroke-dasharray="5,2" d="M823.96,-447.72C834.78,-445.77 841.61,-442.62 841.61,-438.25 841.61,-435.66 839.21,-433.49 834.98,-431.75"/>
<polygon fill="black" stroke="black" points="835.99,-428.4 825.42,-429.17 834.16,-435.15 835.99,-428.4"/>
<text text-anchor="middle" x="862.24" y="-433.2" font-family="Courier,monospace" font-size="14.00">instr</text>
</g>
<!-- 20&#45;&gt;21 -->
<g id="edge43" class="edge">
<title>20&#45;&gt;21</title>
<path fill="none" stroke="black" stroke-dasharray="5,2" d="M616.91,-401.14C585.07,-389.32 548.92,-376.74 515.36,-367 482.61,-357.49 471.34,-358.37 435.36,-349.38"/>
<polygon fill="black" stroke="black" points="436.55,-346.08 425.99,-346.95 434.79,-352.85 436.55,-346.08"/>
<text text-anchor="middle" x="580.86" y="-370.2" font-family="Courier,monospace" font-size="14.00">expr</text>
</g>
<!-- 24 -->
<g id="node35" class="node">
<title>24</title>
<polygon fill="none" stroke="black" points="672.61,-349 442.11,-349 442.11,-292 672.61,-292 672.61,-349"/>
<text text-anchor="middle" x="557.36" y="-331.7" font-family="Courier,monospace" font-size="14.00">State 24</text>
<text text-anchor="start" x="450.11" y="-299.2" font-family="Courier,monospace" font-size="14.00"> 10 instrs: instr instrs •</text>
</g>
<!-- 20&#45;&gt;24 -->
<g id="edge41" class="edge">
<title>20&#45;&gt;24</title>
<path fill="none" stroke="black" stroke-dasharray="5,2" d="M661.42,-401.26C642.75,-386.95 621.36,-370.55 602.84,-356.36"/>
<polygon fill="black" stroke="black" points="605,-353.6 594.93,-350.3 600.74,-359.16 605,-353.6"/>
<text text-anchor="middle" x="663.11" y="-370.2" font-family="Courier,monospace" font-size="14.00">instrs</text>
</g>
<!-- 20R9 -->
<g id="node36" class="node">
<title>20R9</title>
<polygon fill="#b2df8a" stroke="black" points="1096.36,-338.5 1065,-320.5 1096.36,-302.5 1127.73,-320.5 1096.36,-338.5"/>
<text text-anchor="middle" x="1096.36" y="-315.45" font-family="Courier,monospace" font-size="14.00">R9</text>
</g>
<!-- 20&#45;&gt;20R9 -->
<g id="edge44" class="edge">
<title>20&#45;&gt;20R9</title>
<path fill="none" stroke="black" d="M823.82,-412.58C908.29,-393.66 1015.06,-367.71 1056.36,-349 1062.76,-346.1 1069.22,-342.18 1075.04,-338.21"/>
<polygon fill="black" stroke="black" points="1076.82,-341.24 1082.86,-332.53 1072.71,-335.57 1076.82,-341.24"/>
</g>
<!-- 21R12 -->
<g id="node37" class="node">
<title>21R12</title>
<polygon fill="#b2df8a" stroke="black" points="346.36,-229 307.04,-211 346.36,-193 385.69,-211 346.36,-229"/>
<text text-anchor="middle" x="346.36" y="-205.95" font-family="Courier,monospace" font-size="14.00">R12</text>
</g>
<!-- 21&#45;&gt;21R12 -->
<g id="edge45" class="edge">
<title>21&#45;&gt;21R12</title>
<path fill="none" stroke="black" d="M346.36,-291.54C346.36,-275.87 346.36,-256.38 346.36,-240.61"/>
<polygon fill="black" stroke="black" points="349.87,-240.91 346.36,-230.91 342.87,-240.91 349.87,-240.91"/>
</g>
<!-- 25 -->
<g id="node38" class="node">
<title>25</title>
<polygon fill="none" stroke="black" points="804.24,-130 532.49,-130 532.49,-73 804.24,-73 804.24,-130"/>
<text text-anchor="middle" x="668.36" y="-112.7" font-family="Courier,monospace" font-size="14.00">State 25</text>
<text text-anchor="start" x="540.49" y="-80.2" font-family="Courier,monospace" font-size="14.00"> 11 instr: RET expr SEMICOLON •</text>
</g>
<!-- 22&#45;&gt;25 -->
<g id="edge46" class="edge">
<title>22&#45;&gt;25</title>
<path fill="none" stroke="black" d="M668.36,-182.04C668.36,-169.72 668.36,-155.03 668.36,-141.65"/>
<polygon fill="black" stroke="black" points="671.87,-141.84 668.36,-131.84 664.87,-141.84 671.87,-141.84"/>
<text text-anchor="middle" x="705.49" y="-151.2" font-family="Courier,monospace" font-size="14.00">SEMICOLON</text>
</g>
<!-- 23R4 -->
<g id="node39" class="node">
<title>23R4</title>
<polygon fill="#b2df8a" stroke="black" points="1500.36,-229 1469,-211 1500.36,-193 1531.73,-211 1500.36,-229"/>
<text text-anchor="middle" x="1500.36" y="-205.95" font-family="Courier,monospace" font-size="14.00">R4</text>
</g>
<!-- 23&#45;&gt;23R4 -->
<g id="edge47" class="edge">
<title>23&#45;&gt;23R4</title>
<path fill="none" stroke="black" d="M1500.36,-291.54C1500.36,-275.87 1500.36,-256.38 1500.36,-240.61"/>
<polygon fill="black" stroke="black" points="1503.87,-240.91 1500.36,-230.91 1496.87,-240.91 1503.87,-240.91"/>
</g>
<!-- 24R10 -->
<g id="node40" class="node">
<title>24R10</title>
<polygon fill="#b2df8a" stroke="black" points="475.36,-229 436.04,-211 475.36,-193 514.69,-211 475.36,-229"/>
<text text-anchor="middle" x="475.36" y="-205.95" font-family="Courier,monospace" font-size="14.00">R10</text>
</g>
<!-- 24&#45;&gt;24R10 -->
<g id="edge48" class="edge">
<title>24&#45;&gt;24R10</title>
<path fill="none" stroke="black" d="M536.03,-291.54C522.31,-273.54 504.73,-250.5 492.03,-233.85"/>
<polygon fill="black" stroke="black" points="494.95,-231.9 486.1,-226.08 489.38,-236.15 494.95,-231.9"/>
</g>
<!-- 25R11 -->
<g id="node41" class="node">
<title>25R11</title>
<polygon fill="#b2df8a" stroke="black" points="668.36,-36 629.04,-18 668.36,0 707.69,-18 668.36,-36"/>
<text text-anchor="middle" x="668.36" y="-12.95" font-family="Courier,monospace" font-size="14.00">R11</text>
</g>
<!-- 25&#45;&gt;25R11 -->
<g id="edge49" class="edge">
<title>25&#45;&gt;25R11</title>
<path fill="none" stroke="black" d="M668.36,-72.91C668.36,-64.72 668.36,-55.73 668.36,-47.48"/>
<polygon fill="black" stroke="black" points="671.87,-47.62 668.36,-37.62 664.87,-47.62 671.87,-47.62"/>
</g>
</g>
</svg>
